<mxfile host="app.diagrams.net" modified="2024-01-04T05:12:13.352Z" agent="Mozilla/5.0 (Macintosh; Intel Mac OS X 10_15_7) AppleWebKit/537.36 (KHTML, like Gecko) Chrome/120.0.0.0 Safari/537.36" etag="NQTo4kZ6Ci825aK2ighL" version="22.1.16" type="github">
  <diagram name="Page-1" id="c7558073-3199-34d8-9f00-42111426c3f3">
    <mxGraphModel dx="1916" dy="1064" grid="1" gridSize="10" guides="1" tooltips="1" connect="1" arrows="1" fold="1" page="1" pageScale="1" pageWidth="1600" pageHeight="1200" background="none" math="0" shadow="0">
      <root>
        <mxCell id="0" />
        <mxCell id="1" parent="0" />
        <mxCell id="vVPXbf9T39OR10ENnq0c-112" value="" style="rounded=1;whiteSpace=wrap;html=1;fillColor=none;dashed=1;dashPattern=12 12;" vertex="1" parent="1">
          <mxGeometry x="907" y="430" width="160" height="270" as="geometry" />
        </mxCell>
        <mxCell id="vVPXbf9T39OR10ENnq0c-100" value="" style="edgeStyle=orthogonalEdgeStyle;rounded=0;orthogonalLoop=1;jettySize=auto;html=1;" edge="1" parent="1" source="vVPXbf9T39OR10ENnq0c-96" target="vVPXbf9T39OR10ENnq0c-97">
          <mxGeometry relative="1" as="geometry" />
        </mxCell>
        <mxCell id="vVPXbf9T39OR10ENnq0c-125" style="edgeStyle=orthogonalEdgeStyle;rounded=0;orthogonalLoop=1;jettySize=auto;html=1;entryX=0;entryY=0.5;entryDx=0;entryDy=0;" edge="1" parent="1" source="vVPXbf9T39OR10ENnq0c-96" target="vVPXbf9T39OR10ENnq0c-98">
          <mxGeometry relative="1" as="geometry">
            <Array as="points">
              <mxPoint x="673" y="499" />
              <mxPoint x="673" y="639" />
            </Array>
          </mxGeometry>
        </mxCell>
        <mxCell id="vVPXbf9T39OR10ENnq0c-96" value="사용자" style="whiteSpace=wrap;align=center;verticalAlign=middle;fontStyle=1;strokeWidth=3;fillColor=#FFFFCC" vertex="1" parent="1">
          <mxGeometry x="533" y="469" width="90" height="60" as="geometry" />
        </mxCell>
        <mxCell id="vVPXbf9T39OR10ENnq0c-101" value="" style="edgeStyle=orthogonalEdgeStyle;rounded=0;orthogonalLoop=1;jettySize=auto;html=1;" edge="1" parent="1" source="vVPXbf9T39OR10ENnq0c-97" target="vVPXbf9T39OR10ENnq0c-96">
          <mxGeometry relative="1" as="geometry" />
        </mxCell>
        <mxCell id="vVPXbf9T39OR10ENnq0c-122" style="edgeStyle=orthogonalEdgeStyle;rounded=0;orthogonalLoop=1;jettySize=auto;html=1;" edge="1" parent="1" source="vVPXbf9T39OR10ENnq0c-97" target="vVPXbf9T39OR10ENnq0c-113">
          <mxGeometry relative="1" as="geometry" />
        </mxCell>
        <mxCell id="vVPXbf9T39OR10ENnq0c-97" value="AAP" style="whiteSpace=wrap;align=center;verticalAlign=middle;fontStyle=1;strokeWidth=3;fillColor=#FFFFCC" vertex="1" parent="1">
          <mxGeometry x="733" y="468.9999999999999" width="90" height="60" as="geometry" />
        </mxCell>
        <mxCell id="vVPXbf9T39OR10ENnq0c-119" value="" style="edgeStyle=orthogonalEdgeStyle;rounded=0;orthogonalLoop=1;jettySize=auto;html=1;" edge="1" parent="1" source="vVPXbf9T39OR10ENnq0c-98" target="vVPXbf9T39OR10ENnq0c-107">
          <mxGeometry relative="1" as="geometry" />
        </mxCell>
        <mxCell id="vVPXbf9T39OR10ENnq0c-98" value="EAA" style="whiteSpace=wrap;align=center;verticalAlign=middle;fontStyle=1;strokeWidth=3;fillColor=#FFFFCC" vertex="1" parent="1">
          <mxGeometry x="733" y="609" width="90" height="60" as="geometry" />
        </mxCell>
        <mxCell id="vVPXbf9T39OR10ENnq0c-108" value="" style="edgeStyle=orthogonalEdgeStyle;rounded=0;orthogonalLoop=1;jettySize=auto;html=1;" edge="1" parent="1" source="vVPXbf9T39OR10ENnq0c-107" target="vVPXbf9T39OR10ENnq0c-98">
          <mxGeometry relative="1" as="geometry" />
        </mxCell>
        <mxCell id="vVPXbf9T39OR10ENnq0c-120" value="" style="edgeStyle=orthogonalEdgeStyle;rounded=0;orthogonalLoop=1;jettySize=auto;html=1;" edge="1" parent="1" source="vVPXbf9T39OR10ENnq0c-107" target="vVPXbf9T39OR10ENnq0c-113">
          <mxGeometry relative="1" as="geometry" />
        </mxCell>
        <mxCell id="vVPXbf9T39OR10ENnq0c-107" value="EAA&#xa;Connector" style="whiteSpace=wrap;align=center;verticalAlign=middle;fontStyle=1;strokeWidth=3;fillColor=#FFFFCC" vertex="1" parent="1">
          <mxGeometry x="942" y="609" width="90" height="60" as="geometry" />
        </mxCell>
        <mxCell id="vVPXbf9T39OR10ENnq0c-121" style="edgeStyle=orthogonalEdgeStyle;rounded=0;orthogonalLoop=1;jettySize=auto;html=1;" edge="1" parent="1" source="vVPXbf9T39OR10ENnq0c-113">
          <mxGeometry relative="1" as="geometry">
            <mxPoint x="987" y="609" as="targetPoint" />
          </mxGeometry>
        </mxCell>
        <mxCell id="vVPXbf9T39OR10ENnq0c-123" style="edgeStyle=orthogonalEdgeStyle;rounded=0;orthogonalLoop=1;jettySize=auto;html=1;entryX=1;entryY=0.5;entryDx=0;entryDy=0;" edge="1" parent="1" source="vVPXbf9T39OR10ENnq0c-113" target="vVPXbf9T39OR10ENnq0c-97">
          <mxGeometry relative="1" as="geometry" />
        </mxCell>
        <mxCell id="vVPXbf9T39OR10ENnq0c-113" value="APP" style="whiteSpace=wrap;align=center;verticalAlign=middle;fontStyle=1;strokeWidth=3;fillColor=#FFFFCC" vertex="1" parent="1">
          <mxGeometry x="942" y="469" width="90" height="60" as="geometry" />
        </mxCell>
      </root>
    </mxGraphModel>
  </diagram>
</mxfile>
